<?xml version="1.0" encoding="UTF-8" standalone="no"?>
<svg
  viewBox="0 0 24 24"
  xmlns="http://www.w3.org/2000/svg"
>
  <path
    d="m0 8 v8 h1 v2 h1 v2 h1 v1 h1 v1 h2 v1 h2 v1 h1 v-3 h-2 v-1 h-2 v-1 h-1 v-1 h-1 v-1 h2 v1 h1 v1 h2 v1 h1 v-2 h1 v-1 h-3 v-1 h-1 v-1 h-1 v-1 h-1 v-5 h1 v-1 h1 v-3 h1 v1 h1 v1 h8 v-1 h1 v-1 h1 v3 h1 v1 h1 v5 h-1 v1 h-1 v1 h-1 v1 h-3 v1 h1 v6 h1 v-1 h2 v-1 h2 v-1 h1 v-1 h1 v-2 h1 v-2 h1 v-8 h-1 v-2 h-1 v-2 h-1 v-1 h-1 v-1 h-2 v-1 h-2 v-1 h-8 v1 h-2 v1 h-2 v1 h-1 v1 h-1 v2 h-1 v2 z"
  ></path>
</svg>
